HIERARCHY
ROOT Hips
{
	OFFSET	0.00	0.00	0.00
	CHANNELS 6 Xposition Yposition Zposition Zrotation Xrotation Yrotation
	JOINT LeftUpLeg
	{
		OFFSET	 0.126116	-0.065224	 0.014019
		CHANNELS 3 Zrotation Xrotation Yrotation
		JOINT LeftLeg
		{
			OFFSET	 0.000000	 0.569914	 0.000000
			CHANNELS 3 Zrotation Xrotation Yrotation
			JOINT LeftFoot
			{
				OFFSET	 0.000000	 0.544423	 0.000000
				CHANNELS 3 Zrotation Xrotation Yrotation
				JOINT LeftToeBase
				{
					OFFSET	 0.000000	 0.207117	 0.000000
					CHANNELS 3 Zrotation Xrotation Yrotation
					End Site
					{
						OFFSET	 0.000000	 0.207117	 0.000000
					}
				}
			}
		}
	}
	JOINT RightUpLeg
	{
		OFFSET	-0.124023	-0.065224	 0.008373
		CHANNELS 3 Zrotation Xrotation Yrotation
		JOINT RightLeg
		{
			OFFSET	 0.000000	 0.570047	 0.000000
			CHANNELS 3 Zrotation Xrotation Yrotation
			JOINT RightFoot
			{
				OFFSET	 0.000000	 0.544354	 0.000000
				CHANNELS 3 Zrotation Xrotation Yrotation
				JOINT RightToeBase
				{
					OFFSET	 0.000000	 0.207540	 0.000000
					CHANNELS 3 Zrotation Xrotation Yrotation
					End Site
					{
						OFFSET	 0.000000	 0.207540	 0.000000
					}
				}
			}
		}
	}
	JOINT Spine
	{
		OFFSET	 0.000184	 0.117403	 0.007763
		CHANNELS 3 Zrotation Xrotation Yrotation
		JOINT Spine1
		{
			OFFSET	 0.000000	 0.137269	 0.000000
			CHANNELS 3 Zrotation Xrotation Yrotation
			JOINT Spine2
			{
				OFFSET	 0.000000	 0.156879	 0.000000
				CHANNELS 3 Zrotation Xrotation Yrotation
				JOINT LeftShoulder
				{
					OFFSET	 0.080501	 0.160143	 0.002496
					CHANNELS 3 Zrotation Xrotation Yrotation
					JOINT LeftArm
					{
						OFFSET	 0.000000	 0.164363	 0.000000
						CHANNELS 3 Zrotation Xrotation Yrotation
						JOINT LeftForeArm
						{
							OFFSET	 0.000000	 0.364576	 0.000000
							CHANNELS 3 Zrotation Xrotation Yrotation
							JOINT LeftHand
							{
								OFFSET	 0.000000	 0.360812	 0.000000
								CHANNELS 3 Zrotation Xrotation Yrotation
								JOINT LeftHandIndex1
								{
									OFFSET	 0.000000	 0.086006	 0.000000
									CHANNELS 3 Zrotation Xrotation Yrotation
									JOINT LeftHandIndex2
									{
										OFFSET	 0.000000	 0.047237	 0.000000
										CHANNELS 3 Zrotation Xrotation Yrotation
										JOINT LeftHandIndex3
										{
											OFFSET	-0.004284	 0.038165	 0.000551
											CHANNELS 3 Zrotation Xrotation Yrotation
											End Site
											{
												OFFSET	-0.004284	 0.038165	 0.000551
											}
										}
									}
								}
							}
						}
					}
				}
				JOINT Neck
				{
					OFFSET	 0.000000	 0.176489	 0.000000
					CHANNELS 3 Zrotation Xrotation Yrotation
					JOINT Head
					{
						OFFSET	 0.000000	 0.077941	 0.001747
						CHANNELS 3 Zrotation Xrotation Yrotation
						End Site
						{
							OFFSET	 0.000000	 0.077941	 0.001747
						}
					}
				}
				JOINT RightShoulder
				{
					OFFSET	-0.080363	 0.159706	-0.000306
					CHANNELS 3 Zrotation Xrotation Yrotation
					JOINT RightArm
					{
						OFFSET	 0.000000	 0.164196	 0.000000
						CHANNELS 3 Zrotation Xrotation Yrotation
						JOINT RightForeArm
						{
							OFFSET	 0.000000	 0.365611	 0.000000
							CHANNELS 3 Zrotation Xrotation Yrotation
							JOINT RightHand
							{
								OFFSET	 0.000000	 0.360648	 0.000000
								CHANNELS 3 Zrotation Xrotation Yrotation
								JOINT RightHandIndex1
								{
									OFFSET	 0.000000	 0.069977	 0.000000
									CHANNELS 3 Zrotation Xrotation Yrotation
									JOINT RightHandIndex2
									{
										OFFSET	 0.000000	 0.052305	 0.000000
										CHANNELS 3 Zrotation Xrotation Yrotation
										JOINT RightHandIndex3
										{
											OFFSET	 0.009002	 0.042196	 0.000782
											CHANNELS 3 Zrotation Xrotation Yrotation
											End Site
											{
												OFFSET	 0.009002	 0.042196	 0.000782
											}
										}
									}
								}
							}
						}
					}
				}
			}
		}
	}
}
MOTION
Frames:    13
Frame Time: 0.03333334
 0.001439	 1.250213	-0.259409	 0.015636	-0.011749	 179.999900	-179.902200	 2.123407	-0.134591	 4.597939	-20.726450	 0.583814	-9.055699	 79.782070	 8.335901	 1.292262	 28.425850	-2.713146	 178.312500	-17.629010	 0.617312	-0.997514	-4.840144	 0.224091	 13.591640	 83.607150	-14.654740	-1.288183	 28.361890	 2.710176	-0.089620	 2.704450	-0.000518	 0.008173	 3.690318	-0.000995	-0.003861	-4.717897	-0.004101	-101.478000	 1.740671	 90.353390	-0.656411	 64.117140	 3.572366	 5.146298	 10.630700	 0.975961	 10.332780	-10.853570	 0.114124	-6.580301	 5.266122	 0.000000	 0.000000	 0.000000	 0.000000	 0.000000	 0.000000	 0.000000	 0.089846	-3.783161	 0.005928	 0.000015	 1.263154	-0.001370	 101.796200	-0.213316	-89.955440	-2.370090	 63.557180	-6.155084	-7.710587	 11.631590	 2.052032	-14.094950	-12.307540	 1.442488	 15.208500	 5.323790	 0.000000	 0.000000	 0.000000	 0.000000	 0.000000	 0.000000	 0.000000
 0.001439	 1.250652	-0.257680	 0.015580	-0.011744	 179.999900	-179.882000	 2.047040	-0.134674	 4.547919	-20.520290	 0.566198	-8.879706	 79.597500	 8.182882	 1.292262	 28.425850	-2.713146	 178.312700	-17.545610	 0.610435	-0.997908	-4.842043	 0.224055	 13.250890	 83.474590	-14.314000	-1.288183	 28.361890	 2.710176	-0.089620	 2.704450	-0.000518	 0.008073	 3.690150	-0.000993	-0.003816	-4.717752	-0.004166	-101.478000	 1.740672	 90.353390	-0.860966	 63.879280	 3.753413	 5.364706	 11.069700	 0.934888	 10.226850	-11.463390	 0.153776	-6.580301	 5.266122	 0.000000	 0.000000	 0.000000	 0.000000	 0.000000	 0.000000	 0.000000	 0.089846	-3.783161	 0.005928	 0.000015	 1.263154	-0.001370	 101.796200	-0.213315	-89.955440	-1.720573	 62.809930	-6.725393	-8.669462	 13.021290	 2.233150	-13.854370	-13.387610	 1.040961	 15.208500	 5.323790	 0.000000	 0.000000	 0.000000	 0.000000	 0.000000	 0.000000	 0.000000
 0.001438	 1.251162	-0.255667	 0.015576	-0.011744	 179.999900	-179.858100	 1.956708	-0.134726	 4.489148	-20.277320	 0.545713	-8.680118	 79.380980	 8.010328	 1.292262	 28.425850	-2.713146	 178.313000	-17.448210	 0.602677	-0.998402	-4.844421	 0.224015	 12.872910	 83.319830	-13.936040	-1.288183	 28.361890	 2.710176	-0.089620	 2.704451	-0.000518	 0.008069	 3.689972	-0.000993	-0.003813	-4.717644	-0.004162	-101.478000	 1.740662	 90.353390	-1.087785	 63.608190	 3.953397	 5.611194	 11.563360	 0.886494	 10.108460	-12.278940	 0.197953	-6.580301	 5.266122	 0.000000	 0.000000	 0.000000	 0.000000	 0.000000	 0.000000	 0.000000	 0.089846	-3.783161	 0.005928	 0.000015	 1.263154	-0.001370	 101.796200	-0.213314	-89.955450	-0.990198	 61.870990	-7.356273	-9.885756	 14.756660	 2.491291	-13.594920	-14.817060	 0.490568	 15.208500	 5.323790	 0.000000	 0.000000	 0.000000	 0.000000	 0.000000	 0.000000	 0.000000
 0.001437	 1.251642	-0.253778	 0.015593	-0.011744	 179.999900	-179.835300	 1.870524	-0.134820	 4.433465	-20.046420	 0.526520	-8.498277	 79.176250	 7.854171	 1.292262	 28.425850	-2.713146	 178.313300	-17.356790	 0.595310	-0.998845	-4.846563	 0.223977	 12.532990	 83.174330	-13.596120	-1.288183	 28.361890	 2.710176	-0.089620	 2.704450	-0.000518	 0.008097	 3.690146	-0.000993	-0.003827	-4.717752	-0.004157	-101.478000	 1.740674	 90.353390	-1.289488	 63.359630	 4.129067	 5.834584	 12.009050	 0.840854	 10.002550	-13.145240	 0.238672	-6.580301	 5.266122	 0.000000	 0.000000	 0.000000	 0.000000	 0.000000	 0.000000	 0.000000	 0.089846	-3.783161	 0.005928	 0.000015	 1.263154	-0.001370	 101.796200	-0.213313	-89.955440	-0.347781	 60.934650	-7.899702	-11.115050	 16.476240	 2.784438	-13.380870	-16.313440	-0.106407	 15.208500	 5.323790	 0.000000	 0.000000	 0.000000	 0.000000	 0.000000	 0.000000	 0.000000
 0.001436	 1.252118	-0.251905	 0.015595	-0.011746	 179.999900	-179.812500	 1.783810	-0.134981	 4.377809	-19.814940	 0.507546	-8.323155	 78.971970	 7.704808	 1.292262	 28.425850	-2.713146	 178.313600	-17.266030	 0.588172	-0.999297	-4.848743	 0.223926	 12.211230	 83.029680	-13.274350	-1.288183	 28.361890	 2.710176	-0.089620	 2.704451	-0.000518	 0.008099	 3.690143	-0.000993	-0.003827	-4.717752	-0.004156	-101.478000	 1.740671	 90.353390	-1.481131	 63.116710	 4.295563	 6.050232	 12.437750	 0.795225	 9.901809	-14.102140	 0.277111	-6.580301	 5.266122	 0.000000	 0.000000	 0.000000	 0.000000	 0.000000	 0.000000	 0.000000	 0.089846	-3.783161	 0.005928	 0.000015	 1.263154	-0.001370	 101.796200	-0.213317	-89.955440	 0.240926	 59.957820	-8.384585	-12.418320	 18.259330	 3.128853	-13.203100	-17.940730	-0.776858	 15.208500	 5.323790	 0.000000	 0.000000	 0.000000	 0.000000	 0.000000	 0.000000	 0.000000
 0.001429	 1.256471	-0.234756	 0.015580	-0.011744	 179.999900	-179.588000	 0.915586	-0.136273	 3.840662	-17.545770	 0.335472	-6.898158	 77.023540	 6.531399	 1.292262	 28.425850	-2.713146	 178.316100	-16.431490	 0.525274	-1.003285	-4.868000	 0.223598	 9.802335	 81.692290	-10.865130	-1.288183	 28.361890	 2.710176	-0.089620	 2.704450	-0.000518	 0.008095	 3.689977	-0.000993	-0.003828	-4.717646	-0.004166	-101.478000	 1.740674	 90.353390	-2.964972	 60.918340	 5.524220	 7.836921	 15.924860	 0.357268	 9.166818	-26.755410	 0.609760	-6.580301	 5.266122	 0.000000	 0.000000	 0.000000	 0.000000	 0.000000	 0.000000	 0.000000	 0.089846	-3.783161	 0.005928	 0.000015	 1.263154	-0.001370	 101.796200	-0.213314	-89.955450	 2.803060	 49.184390	-9.557929	-29.591570	 37.147880	 10.585460	-14.444760	-38.233780	-11.847540	 15.208500	 5.323790	 0.000000	 0.000000	 0.000000	 0.000000	 0.000000	 0.000000	 0.000000
 0.001429	 1.256928	-0.232952	 0.015593	-0.011744	 179.999900	-179.562500	 0.815333	-0.136356	 3.780781	-17.289010	 0.317546	-6.763469	 76.809270	 6.425074	 1.292262	 28.425850	-2.713146	 178.316400	-16.343310	 0.518947	-1.003695	-4.869970	 0.223560	 9.594951	 81.550450	-10.657690	-1.288183	 28.361890	 2.710176	-0.089620	 2.704450	-0.000518	 0.008097	 3.690146	-0.000993	-0.003827	-4.717752	-0.004157	-101.478000	 1.740674	 90.353390	-3.101352	 60.676530	 5.630816	 8.011668	 16.259180	 0.308808	 9.107717	-28.339110	 0.644006	-6.580301	 5.266122	 0.000000	 0.000000	 0.000000	 0.000000	 0.000000	 0.000000	 0.000000	 0.089846	-3.783161	 0.005928	 0.000015	 1.263154	-0.001370	 101.796200	-0.213313	-89.955440	 2.729375	 47.895570	-9.257968	-32.201350	 39.268670	 12.099300	-15.054110	-40.697030	-13.750850	 15.208500	 5.323790	 0.000000	 0.000000	 0.000000	 0.000000	 0.000000	 0.000000	 0.000000
 0.001428	 1.257357	-0.231265	 0.015580	-0.011744	 179.999900	-179.538400	 0.719837	-0.136524	 3.724126	-17.045400	 0.300823	-6.640049	 76.607060	 6.328586	 1.292262	 28.425850	-2.713146	 178.316600	-16.260760	 0.513134	-1.004081	-4.871841	 0.223530	 9.407828	 81.417570	-10.470510	-1.288183	 28.361890	 2.710176	-0.089620	 2.704450	-0.000518	 0.008095	 3.689977	-0.000993	-0.003828	-4.717650	-0.004158	-101.478000	 1.740675	 90.353390	-3.226523	 60.446590	 5.727237	 8.173486	 16.567690	 0.263112	 9.055141	-29.816850	 0.676294	-6.580301	 5.266122	 0.000000	 0.000000	 0.000000	 0.000000	 0.000000	 0.000000	 0.000000	 0.089846	-3.783161	 0.005928	 0.000015	 1.263154	-0.001370	 101.796200	-0.213320	-89.955440	 2.549830	 46.658990	-8.847775	-34.791760	 41.278180	 13.628850	-15.714240	-43.022420	-15.631390	 15.208500	 5.323790	 0.000000	 0.000000	 0.000000	 0.000000	 0.000000	 0.000000	 0.000000
 0.001427	 1.257786	-0.229576	 0.015593	-0.011744	 179.999900	-179.513700	 0.622184	-0.136640	 3.666592	-16.797350	 0.284080	-6.518054	 76.402520	 6.233978	 1.292262	 28.425850	-2.713146	 178.316800	-16.178040	 0.507341	-1.004457	-4.873656	 0.223494	 9.226248	 81.284290	-10.288870	-1.288183	 28.361890	 2.710176	-0.089620	 2.704450	-0.000518	 0.008086	 3.690145	-0.000993	-0.003820	-4.717752	-0.004157	-101.478000	 1.740672	 90.353390	-3.349537	 60.212520	 5.820581	 8.333899	 16.872480	 0.216985	 9.004992	-31.274260	 0.708636	-6.580301	 5.266122	 0.000000	 0.000000	 0.000000	 0.000000	 0.000000	 0.000000	 0.000000	 0.089846	-3.783161	 0.005928	 0.000015	 1.263154	-0.001370	 101.796200	-0.213310	-89.955440	 2.389236	 45.435020	-8.422173	-37.709750	 43.169450	 15.536480	-16.552300	-45.237610	-17.869050	 15.208500	 5.323790	 0.000000	 0.000000	 0.000000	 0.000000	 0.000000	 0.000000	 0.000000
 0.001427	 1.258267	-0.227682	 0.015580	-0.011744	 179.999900	-179.485600	 0.510471	-0.136763	 3.601238	-16.514760	 0.265347	-6.383515	 76.170880	 6.130620	 1.292262	 28.425850	-2.713146	 178.317100	-16.085240	 0.500877	-1.004883	-4.875706	 0.223459	 9.029366	 81.134740	-10.091920	-1.288183	 28.361890	 2.710176	-0.089620	 2.704450	-0.000518	 0.008073	 3.690319	-0.000993	-0.003816	-4.717895	-0.004100	-101.478000	 1.740666	 90.353370	-3.484768	 59.944860	 5.921737	 8.512127	 17.209670	 0.164794	 8.950933	-32.857490	 0.744434	-6.580301	 5.266122	 0.000000	 0.000000	 0.000000	 0.000000	 0.000000	 0.000000	 0.000000	 0.089846	-3.783161	 0.005928	 0.000015	 1.263154	-0.001370	 101.796200	-0.213309	-89.955440	 2.061080	 44.032630	-7.767733	-41.180480	 45.289920	 17.831540	-17.591140	-47.688910	-20.492440	 15.208500	 5.323790	 0.000000	 0.000000	 0.000000	 0.000000	 0.000000	 0.000000	 0.000000
 0.001426	 1.258692	-0.226004	 0.015576	-0.011744	 179.999900	-179.460400	 0.409567	-0.136810	 3.542611	-16.260550	 0.248805	-6.266056	 75.963710	 6.041190	 1.292262	 28.425850	-2.713146	 178.317300	-16.002950	 0.495336	-1.005263	-4.877548	 0.223422	 8.861494	 81.002120	-9.923998	-1.288183	 28.361890	 2.710176	-0.089620	 2.704451	-0.000518	 0.008080	 3.689972	-0.000993	-0.003817	-4.717646	-0.004158	-101.478000	 1.740669	 90.353380	-3.602556	 59.703110	 6.008739	 8.668400	 17.504100	 0.118161	 8.904502	-34.191440	 0.775185	-6.580301	 5.266122	 0.000000	 0.000000	 0.000000	 0.000000	 0.000000	 0.000000	 0.000000	 0.089846	-3.783161	 0.005928	 0.000015	 1.263154	-0.001370	 101.796200	-0.213325	-89.955450	 1.692015	 42.785920	-7.074402	-44.519700	 47.089290	 20.129240	-18.624500	-49.753130	-23.023360	 15.208500	 5.323790	 0.000000	 0.000000	 0.000000	 0.000000	 0.000000	 0.000000	 0.000000
 0.001425	 1.259165	-0.224143	 0.015595	-0.011746	 179.999900	-179.431700	 0.294988	-0.136937	 3.476531	-15.973220	 0.230463	-6.137803	 75.731210	 5.944609	 1.292262	 28.425850	-2.713146	 178.317600	-15.911570	 0.489228	-1.005685	-4.879589	 0.223394	 8.681270	 80.854800	-9.743704	-1.288183	 28.361890	 2.710176	-0.089620	 2.704451	-0.000518	 0.008088	 3.689966	-0.000993	-0.003823	-4.717642	-0.004156	-101.478000	 1.740661	 90.353380	-3.730708	 59.428990	 6.101604	 8.840160	 17.826750	 0.065984	 8.854113	-35.566380	 0.808409	-6.580301	 5.266122	 0.000000	 0.000000	 0.000000	 0.000000	 0.000000	 0.000000	 0.000000	 0.089846	-3.783161	 0.005928	 0.000015	 1.263154	-0.001370	 101.796200	-0.213319	-89.955440	 1.185020	 41.401800	-6.163639	-48.521390	 48.977040	 22.975810	-19.862170	-51.892610	-26.031430	 15.208500	 5.323790	 0.000000	 0.000000	 0.000000	 0.000000	 0.000000	 0.000000	 0.000000
 0.001425	 1.259642	-0.222262	 0.015580	-0.011744	 179.999900	-179.402400	 0.176868	-0.137001	 3.408835	-15.677970	 0.211999	-6.010072	 75.493680	 5.849402	 1.292262	 28.425850	-2.713146	 178.317800	-15.819190	 0.483142	-1.006111	-4.881638	 0.223353	 8.505375	 80.705800	-9.567748	-1.288183	 28.361890	 2.710176	-0.089620	 2.704450	-0.000518	 0.008073	 3.690150	-0.000993	-0.003816	-4.717757	-0.004158	-101.478000	 1.740677	 90.353390	-3.857473	 59.146000	 6.191515	 9.011834	 18.147780	 0.012917	 8.803213	-36.808640	 0.840045	-6.580301	 5.266122	 0.000000	 0.000000	 0.000000	 0.000000	 0.000000	 0.000000	 0.000000	 0.089846	-3.783161	 0.005928	 0.000015	 1.263154	-0.001370	 101.796200	-0.213315	-89.955440	 0.559252	 40.008820	-5.077446	-52.881790	 50.737040	 26.173860	-21.150030	-53.855690	-29.236930	 15.208500	 5.323790	 0.000000	 0.000000	 0.000000	 0.000000	 0.000000	 0.000000	 0.000000
